<?xml version="1.0" standalone="no"?>
<!DOCTYPE svg PUBLIC "-//W3C//DTD SVG 20010904//EN"
 "http://www.w3.org/TR/2001/REC-SVG-20010904/DTD/svg10.dtd">
<svg version="1.0" xmlns="http://www.w3.org/2000/svg"
 width="200.000000pt" height="200.000000pt" viewBox="0 0 200.000000 200.000000"
 preserveAspectRatio="xMidYMid meet">
<metadata>
Created by potrace 1.11, written by Peter Selinger 2001-2013
</metadata>
<g transform="translate(0.000000,200.000000) scale(0.100000,-0.100000)"
fill="#000000" stroke="none">
<path d="M1163 1938 c-16 -24 -141 -198 -278 -388 -453 -629 -495 -688 -495
-694 0 -2 134 -5 297 -5 163 -1 298 -3 300 -5 2 -1 -28 -108 -67 -237 -39
-129 -94 -310 -121 -402 -28 -93 -53 -176 -56 -185 -7 -20 121 152 577 773
101 138 201 273 222 302 l38 52 -296 0 c-163 0 -298 2 -301 4 -2 3 19 90 47
193 27 104 73 275 101 379 28 105 54 203 60 219 14 44 4 42 -28 -6z"/>
</g>
</svg>
