<?xml version="1.0" standalone="no"?>
<!DOCTYPE svg PUBLIC "-//W3C//DTD SVG 20010904//EN"
 "http://www.w3.org/TR/2001/REC-SVG-20010904/DTD/svg10.dtd">
<svg version="1.0" xmlns="http://www.w3.org/2000/svg"
 width="1024.000000pt" height="1024.000000pt" viewBox="0 0 1024.000000 1024.000000"
 preserveAspectRatio="xMidYMid meet">
<metadata>
Created by potrace 1.11, written by Peter Selinger 2001-2013
</metadata>
<g transform="translate(0.000000,1024.000000) scale(0.100000,-0.100000)"
fill="#000000" stroke="none">
<path d="M2910 10221 c-59 -18 -107 -39 -127 -56 -7 -5 -30 -23 -51 -40 -22
-16 -53 -48 -69 -70 -36 -47 -75 -115 -67 -115 4 0 2 -6 -4 -12 -5 -7 -12 -26
-16 -43 -9 -49 -18 -98 -21 -125 -3 -23 -11 -86 -21 -165 -2 -16 -6 -43 -8
-60 -6 -34 -16 -106 -21 -150 -4 -28 -12 -90 -20 -160 -2 -16 -6 -46 -9 -65
-3 -19 -8 -57 -11 -85 -4 -27 -8 -57 -10 -65 -2 -8 -6 -40 -10 -71 -3 -31 -7
-65 -9 -75 -2 -11 -7 -46 -10 -79 -4 -33 -9 -67 -11 -75 -2 -8 -7 -40 -9 -70
-3 -30 -8 -66 -10 -80 -3 -14 -7 -47 -11 -75 -8 -69 -15 -116 -20 -145 -3 -14
-7 -50 -11 -80 -3 -30 -7 -66 -9 -80 -2 -14 -8 -63 -15 -110 -6 -47 -13 -99
-15 -117 -2 -17 -6 -49 -9 -70 -20 -139 -35 -252 -40 -298 -7 -58 -19 -150
-22 -170 -3 -11 -7 -38 -9 -60 -7 -55 -15 -115 -20 -145 -2 -14 -7 -50 -10
-80 -3 -30 -7 -62 -10 -70 -2 -8 -6 -42 -10 -75 -3 -33 -8 -71 -10 -85 -6 -32
-15 -94 -20 -146 -2 -22 -6 -54 -9 -70 -6 -36 -14 -96 -21 -154 -4 -25 -8 -56
-10 -70 -3 -14 -7 -47 -9 -74 -6 -52 -14 -107 -21 -146 -3 -13 -7 -54 -11 -90
-3 -36 -8 -73 -10 -84 -2 -10 -6 -44 -10 -75 -3 -31 -8 -65 -10 -76 -3 -17
-20 -138 -39 -290 -2 -16 -7 -50 -11 -75 -3 -25 -8 -61 -10 -80 -1 -19 -5 -44
-8 -56 -2 -11 -7 -47 -10 -80 -4 -32 -8 -66 -11 -74 -2 -8 -6 -40 -10 -70 -3
-30 -10 -80 -15 -110 -36 -220 43 -415 215 -525 70 -45 137 -66 229 -70 43 -2
81 -6 83 -9 3 -3 15 -1 27 4 13 4 28 5 35 0 7 -4 27 -4 45 0 18 4 42 3 54 -1
12 -5 24 -4 27 1 3 5 18 5 35 0 17 -5 30 -6 30 -2 0 4 16 7 35 7 19 0 35 -3
35 -7 0 -4 13 -3 30 2 16 5 32 5 35 0 3 -4 21 -4 40 0 19 4 37 4 40 -1 3 -4
16 -4 28 0 12 5 32 5 44 0 12 -4 25 -4 28 1 3 5 18 5 35 0 17 -5 30 -5 30 0 0
4 16 4 34 0 19 -4 37 -5 40 -2 8 7 69 7 88 0 8 -4 21 -2 28 2 7 5 24 4 36 0
13 -5 26 -5 28 -1 3 5 20 5 38 2 18 -4 48 -4 66 0 17 4 34 3 37 -2 3 -4 16 -4
28 0 13 5 30 5 38 1 8 -5 21 -5 29 0 7 4 23 4 36 0 12 -5 25 -6 28 -3 8 8 85
8 92 0 4 -3 16 -2 28 3 13 4 28 5 35 0 7 -4 27 -4 45 0 18 4 42 3 54 -1 12 -5
24 -4 27 1 3 5 18 5 35 0 17 -5 30 -6 30 -2 0 4 16 7 35 7 19 0 35 -3 35 -7 0
-4 13 -3 30 2 17 5 32 5 35 0 3 -5 15 -6 28 -1 12 5 32 5 44 0 12 -4 25 -4 28
0 3 5 20 6 37 2 18 -4 48 -4 66 0 17 3 32 3 32 -2 0 -4 13 -4 30 1 17 5 32 5
35 0 3 -5 13 -6 22 -3 20 8 81 8 89 1 3 -3 21 -2 40 2 18 4 34 4 34 0 0 -5 13
-5 29 0 15 4 34 4 42 0 7 -5 20 -5 28 0 16 8 61 -4 61 -16 0 -3 -18 -81 -41
-172 -60 -248 -80 -335 -82 -354 -1 -10 -5 -18 -10 -18 -4 0 -6 -4 -3 -8 3 -5
-3 -41 -14 -80 -10 -40 -19 -76 -19 -80 -1 -4 -6 -23 -11 -42 -5 -19 -12 -53
-16 -75 -3 -22 -8 -44 -12 -49 -3 -5 -6 -19 -8 -30 -2 -12 -5 -30 -8 -41 -10
-38 -47 -190 -52 -215 -2 -14 -7 -33 -10 -42 -3 -9 -7 -27 -9 -40 -3 -13 -12
-52 -21 -88 -19 -76 -18 -73 -29 -125 -4 -22 -10 -44 -13 -50 -3 -5 -7 -18 -8
-30 -1 -11 -17 -78 -34 -150 -17 -71 -34 -141 -36 -155 -3 -14 -17 -70 -31
-125 -13 -55 -27 -109 -29 -120 -10 -52 -13 -63 -24 -105 -7 -25 -13 -52 -15
-60 -3 -12 -55 -236 -71 -305 -3 -11 -7 -30 -10 -42 -2 -12 -8 -33 -14 -47 -5
-13 -6 -26 -4 -29 3 -3 1 -14 -4 -24 -5 -10 -12 -34 -15 -53 -3 -19 -10 -51
-16 -70 -6 -19 -14 -48 -17 -65 -3 -16 -11 -55 -19 -85 -8 -30 -16 -66 -19
-80 -4 -22 -17 -79 -30 -130 -13 -50 -27 -108 -30 -125 -7 -38 -67 -290 -76
-320 -5 -16 -11 -41 -14 -55 -3 -14 -16 -74 -30 -135 -22 -98 -32 -161 -26
-175 1 -3 3 -21 4 -40 8 -107 57 -209 146 -301 35 -36 180 -119 180 -102 0 3
7 0 15 -7 8 -6 54 -13 103 -16 150 -6 261 35 362 134 50 49 74 83 135 192 6
10 16 24 23 32 6 8 10 17 7 20 -3 3 1 11 10 18 8 7 15 19 15 26 0 8 5 14 10
14 6 0 10 4 10 10 0 5 32 64 71 132 40 67 80 136 89 153 10 16 41 71 70 120
29 50 61 106 72 125 11 19 30 51 41 70 12 19 29 47 37 62 53 96 88 157 250
433 10 17 48 84 85 150 38 66 71 122 75 125 3 3 17 25 29 50 12 25 38 70 56
100 19 30 34 60 35 67 0 6 4 13 8 15 4 2 50 77 102 168 52 91 97 167 100 170
3 3 14 23 25 45 11 22 25 47 31 55 7 8 26 42 44 75 18 33 35 62 39 65 3 3 19
31 36 63 16 31 33 57 37 57 4 0 8 6 8 14 0 8 23 51 50 95 28 44 50 82 50 85 0
2 36 65 80 140 44 76 80 141 80 146 0 6 4 10 9 10 5 0 13 10 17 23 3 12 12 29
19 37 7 8 25 38 39 65 15 28 31 57 36 65 52 85 89 150 94 168 4 12 12 22 17
22 5 0 9 4 9 9 0 5 21 45 46 88 26 43 55 92 64 108 9 17 29 50 44 75 15 25 32
57 39 72 6 16 15 28 19 28 4 0 8 4 8 10 0 5 15 33 32 62 18 29 40 66 48 81 13
23 162 283 249 431 38 65 61 105 113 196 27 47 53 92 58 100 5 8 46 78 90 155
44 77 85 147 90 155 6 8 13 23 16 33 4 9 10 17 15 17 5 0 9 5 9 10 0 6 57 108
126 228 70 119 138 237 152 262 14 25 29 47 34 48 4 2 8 10 8 17 0 7 20 46 45
86 25 40 45 79 45 86 0 7 4 13 8 13 5 0 16 15 25 33 9 17 30 55 47 82 17 28
35 62 41 78 6 15 15 27 20 27 5 0 9 4 9 9 0 6 16 36 35 68 58 96 77 158 80
257 5 177 -73 327 -220 421 -44 28 -109 57 -140 61 -5 1 -12 3 -15 4 -3 1 -38
4 -79 6 -41 2 -80 5 -88 8 -7 3 -15 1 -18 -3 -3 -5 -21 -5 -40 -1 -19 4 -35 4
-35 0 0 -4 -15 -4 -34 0 -19 4 -39 4 -46 0 -7 -4 -27 -4 -46 0 -19 4 -34 4
-34 0 0 -4 -18 -4 -40 0 -22 4 -40 4 -40 0 0 -4 -18 -4 -40 0 -22 4 -43 4 -45
0 -3 -4 -21 -4 -40 0 -19 4 -35 4 -35 0 0 -4 -18 -4 -40 0 -22 4 -40 4 -40 0
0 -4 -18 -4 -40 0 -22 4 -43 4 -45 0 -3 -4 -21 -4 -40 0 -19 4 -35 4 -35 0 0
-4 -18 -4 -40 0 -22 4 -40 4 -40 0 0 -4 -18 -4 -40 0 -22 4 -43 4 -45 0 -3 -4
-21 -4 -40 0 -19 4 -35 4 -35 0 0 -4 -18 -4 -40 0 -22 4 -40 4 -40 0 0 -4 -18
-4 -40 0 -22 4 -43 4 -45 0 -3 -4 -21 -4 -40 0 -19 4 -35 4 -35 0 0 -4 -18 -4
-40 0 -22 4 -40 4 -40 0 0 -4 -18 -4 -40 0 -22 4 -40 4 -40 0 0 -4 -15 -4 -34
0 -19 4 -39 4 -46 0 -7 -4 -27 -4 -46 0 -19 4 -34 4 -34 0 0 -4 -18 -4 -40 0
-22 4 -40 4 -40 0 0 -4 -18 -4 -40 0 -22 4 -43 4 -45 0 -3 -4 -21 -4 -40 0
-19 4 -35 4 -35 0 0 -4 -18 -4 -40 0 -22 4 -40 4 -40 0 0 -4 -18 -4 -40 0 -22
4 -43 3 -46 -1 -3 -5 -10 -7 -15 -3 -6 3 -71 6 -145 6 -102 0 -134 2 -134 12
0 7 32 108 70 224 39 116 70 218 70 226 0 9 4 16 8 16 5 0 9 6 9 13 0 10 82
270 100 317 3 8 7 20 9 25 1 6 14 44 29 85 14 41 28 86 31 99 3 13 9 32 14 41
5 9 11 28 14 41 3 13 17 58 31 99 15 41 28 82 30 91 2 8 10 32 19 52 8 21 15
40 16 42 0 3 0 6 1 8 0 1 2 11 4 23 3 12 14 42 25 68 11 26 20 54 20 61 0 8 5
26 12 42 12 29 13 35 22 68 3 11 22 67 41 125 20 58 38 112 40 120 2 8 22 69
45 135 23 66 43 127 45 135 2 8 35 112 74 230 47 141 73 236 76 279 3 35 8 67
11 72 3 5 0 9 -6 9 -6 0 -9 4 -6 9 8 13 -21 115 -48 169 -53 104 -155 194
-271 238 -48 18 -103 19 -1580 20 -1408 2 -1534 0 -1585 -15z"/>
</g>
</svg>
